<?xml version="1.0" encoding="UTF-8"?>
<svg id="Camada_1" xmlns="http://www.w3.org/2000/svg" viewBox="0 0 799.14 799.97">
  <defs>
    <style>
      .cls-1 {
        fill: #ff694a;
      }
    </style>
  </defs>
  <path class="cls-1" d="M596.25,312.53c-23.73-43.23-58.79-79.18-101.4-104l59.03,27.93c48.85,23.05,91.57,57.31,124.67,100l107.8-197.63c17.76-30.7,16.98-68.73-2.03-98.67-26.18-38.93-77.71-51.53-118.9-29.07l-195.83,107c-43.38,23.66-95.82,23.66-139.2,0L138.82,13.6C108.11-4.15,70.08-3.34,40.15,15.7,1.24,41.88-11.36,93.38,11.09,134.57l106.83,195.77c23.67,43.39,23.67,95.84,0,139.23L13.69,661c-17.98,31.17-16.89,69.8,2.83,99.9,26.46,38.14,77.42,50.2,118.17,27.97l201.93-110.17c-42.77-33.14-77.1-75.93-100.17-124.87l-27.93-59c24.82,42.61,60.77,77.67,104,101.4l352.8,192.63c40.72,22.2,91.62,10.18,118.1-27.9,19.65-30.18,20.68-68.85,2.67-100.03l-189.83-348.4ZM708.92,54.7c20.08,0,36.35,16.27,36.35,36.35s-16.27,36.35-36.35,36.35c-20.07,0-36.33-16.27-36.33-36.34,0-20.06,16.27-36.32,36.33-36.33v-.03ZM91.05,127.4c-20.07,0-36.34-16.26-36.34-36.33,0-20.07,16.26-36.34,36.33-36.34h.01c20.07,0,36.33,16.27,36.33,36.34,0,20.06-16.27,36.32-36.33,36.33ZM91.05,745.27c-20.07,0-36.33-16.27-36.33-36.33s16.27-36.33,36.33-36.33,36.33,16.27,36.33,36.33-16.27,36.33-36.33,36.33ZM436.35,363.67c-40.02-.11-72.56,32.24-72.67,72.27h0c-.08,20.39,8.44,39.88,23.47,53.67-49.71-6.06-85.08-51.27-79.02-100.98,6.06-49.71,51.27-85.08,100.98-79.02,1.11.13,2.21.29,3.31.47,40.03,5.64,71.49,37.1,77.13,77.13-13.64-14.97-32.95-23.51-53.2-23.53ZM708.92,745.33c-20.08,0-36.37-16.28-36.37-36.37s16.28-36.37,36.37-36.37h0c20.08,0,36.35,16.27,36.35,36.35s-16.27,36.35-36.35,36.35v.03Z"/>
</svg>